<svg width="202" height="40" viewBox="0 0 202 40" fill="none" xmlns="http://www.w3.org/2000/svg">
<path d="M60.8633 11.2422V28H57.7578V11.2422H60.8633ZM64.3906 28V11.2422H67.4961L76.3438 23.4531V11.2422H79.332V28H76.2266L67.3789 15.5312V28H64.3906ZM82.5664 27.2969V24.4844C84.2461 25.1094 86.1445 25.4219 88.2617 25.4219C90.832 25.4219 92.1172 24.5625 92.1172 22.8438C92.1172 21.5938 91.3281 20.9688 89.75 20.9688H87.125C83.6953 20.9688 81.9805 19.4062 81.9805 16.2812C81.9805 12.8438 84.4219 11.125 89.3047 11.125C91.1797 11.125 92.957 11.3984 94.6367 11.9453V14.7578C92.957 14.1328 91.1797 13.8203 89.3047 13.8203C86.4922 13.8203 85.0859 14.6406 85.0859 16.2812C85.0859 17.5312 85.7656 18.1562 87.125 18.1562H89.75C93.3984 18.1562 95.2227 19.7188 95.2227 22.8438C95.2227 26.3594 92.9023 28.1172 88.2617 28.1172C86.1445 28.1172 84.2461 27.8438 82.5664 27.2969ZM108.816 11.2422V13.9375H104.012V28H100.906V13.9375H96.1016V11.2422H108.816ZM112.309 28H109.121L116.234 11.2422H119.574L126.84 28H123.5L121.59 23.4297H116.023L117.09 20.7344H120.465L117.828 14.4414L112.309 28ZM135.453 25.3047C138.93 25.3047 140.668 23.2578 140.668 19.1641C140.668 15.6797 138.93 13.9375 135.453 13.9375H131.996V25.3047H135.453ZM128.891 28V11.2422H135.453C141 11.2422 143.773 13.8828 143.773 19.1641C143.773 25.0547 141 28 135.453 28H128.891ZM149.527 11.2422V28H146.422V11.2422H149.527ZM153.055 28V11.2422H156.277L161.961 23.957L167.527 11.2422H170.633V28H167.762V16.3281L163.215 28H160.566L155.926 16.3281V28H153.055ZM185.621 11.2422V13.9141H177.23V18.1328H185.223V20.9102H177.195V25.3047H185.785V28H174.148V11.2422H185.621ZM188.363 27.2969V24.4844C190.043 25.1094 191.941 25.4219 194.059 25.4219C196.629 25.4219 197.914 24.5625 197.914 22.8438C197.914 21.5938 197.125 20.9688 195.547 20.9688H192.922C189.492 20.9688 187.777 19.4062 187.777 16.2812C187.777 12.8438 190.219 11.125 195.102 11.125C196.977 11.125 198.754 11.3984 200.434 11.9453V14.7578C198.754 14.1328 196.977 13.8203 195.102 13.8203C192.289 13.8203 190.883 14.6406 190.883 16.2812C190.883 17.5312 191.562 18.1562 192.922 18.1562H195.547C199.195 18.1562 201.02 19.7188 201.02 22.8438C201.02 26.3594 198.699 28.1172 194.059 28.1172C191.941 28.1172 190.043 27.8438 188.363 27.2969Z" fill="white"/>
<path fill-rule="evenodd" clip-rule="evenodd" d="M0 19.9977C0.00119162 8.95307 8.82321 0 19.7055 0C19.8039 0 19.902 0.000730633 20 0.00218684C19.9988 11.0468 11.1767 19.9999 0.294412 19.9999C0.196105 19.9999 0.0979658 19.9992 0 19.9977Z" fill="#C0E864"/>
<path fill-rule="evenodd" clip-rule="evenodd" d="M0.00286293 20C11.0472 20.0013 20 28.8234 20 39.7058C20 39.804 19.9993 39.902 19.9978 39.9998C8.95347 39.9985 0.000682342 31.1764 0.000682818 20.294C0.000682822 20.1958 0.00141143 20.0978 0.00286293 20Z" fill="#C0E864"/>
<path fill-rule="evenodd" clip-rule="evenodd" d="M20.0029 -8.74115e-07C31.0472 0.00134501 40 8.82343 40 19.7058C40 19.8041 39.9993 19.9021 39.9978 20C28.9535 19.9987 20.0007 11.1766 20.0007 0.294212C20.0007 0.195972 20.0014 0.097899 20.0029 -8.74115e-07Z" fill="#C0E864"/>
<path fill-rule="evenodd" clip-rule="evenodd" d="M20 39.9977C20.0012 28.9531 28.8232 20 39.7055 20C39.8039 20 39.902 20.0007 40 20.0022C39.9988 31.0468 31.1767 39.9999 20.2944 39.9999C20.1961 39.9999 20.098 39.9992 20 39.9977Z" fill="#C0E864"/>
</svg>
