<svg width="246" height="48" viewBox="0 0 246 48" fill="none" xmlns="http://www.w3.org/2000/svg">
<path d="M73.8247 13.8727V34.1992H70.0579V13.8727H73.8247ZM78.1032 34.1992V13.8727H81.87L92.6019 28.6841V13.8727H96.2265V34.1992H92.4597L81.7279 19.0752V34.1992H78.1032ZM100.15 33.3464V29.9349C102.187 30.693 104.49 31.0721 107.058 31.0721C110.176 31.0721 111.734 30.0297 111.734 27.9449C111.734 26.4287 110.777 25.6706 108.863 25.6706H105.679C101.519 25.6706 99.439 23.7754 99.439 19.9849C99.439 15.8154 102.4 13.7306 108.323 13.7306C110.597 13.7306 112.753 14.0623 114.79 14.7256V18.137C112.753 17.3789 110.597 16.9999 108.323 16.9999C104.911 16.9999 103.206 17.9949 103.206 19.9849C103.206 21.5011 104.03 22.2592 105.679 22.2592H108.863C113.288 22.2592 115.501 24.1544 115.501 27.9449C115.501 32.2092 112.687 34.3414 107.058 34.3414C104.49 34.3414 102.187 34.0097 100.15 33.3464ZM131.99 13.8727V17.142H126.162V34.1992H122.395V17.142H116.567V13.8727H131.99ZM136.226 34.1992H132.359L140.987 13.8727H145.039L153.851 34.1992H149.8L147.483 28.6556H140.732L142.025 25.3863H146.119L142.921 17.7532L136.226 34.1992ZM164.299 30.9299C168.516 30.9299 170.624 28.4472 170.624 23.4816C170.624 19.2552 168.516 17.142 164.299 17.142H160.106V30.9299H164.299ZM156.339 34.1992V13.8727H164.299C171.027 13.8727 174.391 17.0757 174.391 23.4816C174.391 30.6267 171.027 34.1992 164.299 34.1992H156.339ZM181.37 13.8727V34.1992H177.604V13.8727H181.37ZM185.649 34.1992V13.8727H189.558L196.452 29.2953L203.204 13.8727H206.97V34.1992H203.488V20.0417L197.973 34.1992H194.76L189.131 20.0417V34.1992H185.649ZM225.15 13.8727V17.1136H214.973V22.2308H224.667V25.5995H214.93V30.9299H225.349V34.1992H211.235V13.8727H225.15ZM228.477 33.3464V29.9349C230.514 30.693 232.817 31.0721 235.385 31.0721C238.502 31.0721 240.061 30.0297 240.061 27.9449C240.061 26.4287 239.104 25.6706 237.19 25.6706H234.006C229.846 25.6706 227.766 23.7754 227.766 19.9849C227.766 15.8154 230.727 13.7306 236.65 13.7306C238.924 13.7306 241.08 14.0623 243.117 14.7256V18.137C241.08 17.3789 238.924 16.9999 236.65 16.9999C233.238 16.9999 231.533 17.9949 231.533 19.9849C231.533 21.5011 232.357 22.2592 234.006 22.2592H237.19C241.615 22.2592 243.828 24.1544 243.828 27.9449C243.828 32.2092 241.014 34.3414 235.385 34.3414C232.817 34.3414 230.514 34.0097 228.477 33.3464Z" fill="white"/>
<path fill-rule="evenodd" clip-rule="evenodd" d="M0 23.9964C0.00192157 10.7432 10.7025 0 23.902 0C24.0216 0 24.141 0.000882603 24.2603 0.00264168C24.2583 13.2558 13.5578 23.999 0.358294 23.999C0.238655 23.999 0.119222 23.9982 0 23.9964Z" fill="#C0E864"/>
<path fill-rule="evenodd" clip-rule="evenodd" d="M0.00215054 24.002C13.3985 24.0036 24.2578 34.5901 24.2578 47.649C24.2578 47.7666 24.2569 47.8839 24.2552 48.0011C10.8589 47.9995 -0.000484105 37.413 -0.000483528 24.3541C-0.000483523 24.2365 0.00039577 24.1191 0.00215054 24.002Z" fill="#C0E864"/>
<path fill-rule="evenodd" clip-rule="evenodd" d="M24.2639 -1.06026e-06C37.6602 0.00160642 48.5195 10.5881 48.5195 23.647C48.5195 23.7646 48.5186 23.882 48.5169 23.9991C35.1206 23.9975 24.2612 13.411 24.2612 0.352112C24.2612 0.234538 24.2621 0.117165 24.2639 -1.06026e-06Z" fill="#C0E864"/>
<path fill-rule="evenodd" clip-rule="evenodd" d="M24.2578 47.9984C24.2597 34.7452 34.9603 24.002 48.1598 24.002C48.2794 24.002 48.3988 24.0028 48.5181 24.0046C48.5162 37.2578 37.8156 48.001 24.6161 48.001C24.4965 48.001 24.377 48.0001 24.2578 47.9984Z" fill="#C0E864"/>
</svg>
